<svg viewBox="0 0 400 120" xmlns="http://www.w3.org/2000/svg">
  <defs>
    <linearGradient id="brandGradient" x1="0%" y1="0%" x2="100%" y2="100%">
      <stop offset="0%" style="stop-color:#635BFF;stop-opacity:1" />
      <stop offset="100%" style="stop-color:#2AE8F0;stop-opacity:1" />
    </linearGradient>
  </defs>
  
  <!-- Pixel-style icon - 8-bit microphone/recording icon -->
  <g transform="translate(10, 20)">
    <!-- Base shape - pixelated square border with sharp edges -->
    <rect x="0" y="0" width="80" height="80" fill="#16161A" stroke="url(#brandGradient)" stroke-width="4"/>
    
    <!-- 8-bit microphone icon (classic recording symbol) -->
    <g fill="url(#brandGradient)">
      <!-- Microphone body (center vertical bars) -->
      <rect x="32" y="20" width="8" height="8"/>
      <rect x="32" y="28" width="8" height="8"/>
      <rect x="32" y="36" width="8" height="8"/>
      <rect x="40" y="20" width="8" height="8"/>
      <rect x="40" y="28" width="8" height="8"/>
      <rect x="40" y="36" width="8" height="8"/>
      
      <!-- Microphone top cap -->
      <rect x="32" y="12" width="8" height="8"/>
      <rect x="40" y="12" width="8" height="8"/>
      
      <!-- Microphone stand sides -->
      <rect x="24" y="44" width="8" height="8"/>
      <rect x="48" y="44" width="8" height="8"/>
      <rect x="24" y="52" width="8" height="8"/>
      <rect x="48" y="52" width="8" height="8"/>
      
      <!-- Stand base horizontal -->
      <rect x="24" y="60" width="8" height="8"/>
      <rect x="32" y="60" width="8" height="8"/>
      <rect x="40" y="60" width="8" height="8"/>
      <rect x="48" y="60" width="8" height="8"/>
      
      <!-- Connecting vertical piece -->
      <rect x="36" y="44" width="8" height="8"/>
      <rect x="36" y="52" width="8" height="8"/>
    </g>
    
    <!-- 8-bit AI accent pixels - recording dots/indicators -->
    <rect x="16" y="24" width="4" height="4" fill="#EF4444" opacity="0.9"/>
    <rect x="16" y="32" width="4" height="4" fill="#EF4444" opacity="0.7"/>
    <rect x="16" y="40" width="4" height="4" fill="#EF4444" opacity="0.5"/>
    
    <rect x="60" y="24" width="4" height="4" fill="#2AE8F0" opacity="0.9"/>
    <rect x="60" y="32" width="4" height="4" fill="#A29BFF" opacity="0.7"/>
  </g>
  
  <!-- ScribeAI Text -->
  <g transform="translate(110, 35)">
    <text x="0" y="30" font-family="'Inter Tight', Arial, sans-serif" font-size="42" font-weight="700" fill="#FFFFFF" letter-spacing="-1">
      Scribe<tspan fill="url(#brandGradient)">AI</tspan>
    </text>
    
    <!-- Tagline -->
    <text x="2" y="55" font-family="'Inter', Arial, sans-serif" font-size="14" font-weight="500" fill="#9CA3AF" letter-spacing="1">
      AI-Powered Transcription
    </text>
  </g>
</svg>